<?xml version="1.0" standalone="no"?>
<!DOCTYPE svg PUBLIC "-//W3C//DTD SVG 20010904//EN"
 "http://www.w3.org/TR/2001/REC-SVG-20010904/DTD/svg10.dtd">
<svg version="1.0" xmlns="http://www.w3.org/2000/svg"
 width="700.000000pt" height="700.000000pt" viewBox="0 0 700.000000 700.000000"
 preserveAspectRatio="xMidYMid meet">
<metadata>
Created by potrace 1.11, written by Peter Selinger 2001-2013
</metadata>
<g transform="translate(0.000000,700.000000) scale(0.100000,-0.100000)"
fill="#000000" stroke="none">
<path d="M91 5722 c-1 -1254 -1 -1279 19 -1357 31 -119 81 -214 157 -295 l33
-35 0 -1650 0 -1650 -127 0 c-71 1 -132 0 -138 -2 -6 -2 -10 -132 -10 -366 l1
-362 3474 0 3475 0 0 358 c0 198 -2 362 -5 366 -3 4 -61 7 -130 6 l-125 0 -2
1643 -1 1643 50 57 c84 96 138 205 164 332 4 19 7 463 6 985 -1 523 -1 1097
-2 1278 l0 327 -3419 0 -3419 0 -1 -1278z m1100 153 c3 -64 -1 -1413 -4 -1425
-2 -8 -9 -35 -16 -60 -35 -124 -150 -242 -277 -286 -65 -22 -185 -26 -253 -8
-147 39 -271 164 -313 314 -14 52 -21 1471 -6 1481 4 3 201 5 438 5 426 0 430
0 431 -21z m1104 -695 c-1 -569 -3 -726 -14 -769 -39 -156 -181 -291 -337
-320 -62 -12 -180 -7 -219 9 -117 49 -197 113 -248 200 -59 102 -60 109 -60
876 0 385 3 705 6 711 4 6 162 9 439 9 l433 -1 0 -715z m1105 5 c-1 -439 -5
-727 -11 -755 -34 -152 -141 -271 -293 -327 -57 -21 -189 -24 -251 -6 -165 49
-284 178 -315 342 -6 33 -10 320 -10 755 l0 701 440 0 440 0 0 -710z m1101
676 c2 -98 1 -1333 -2 -1376 -9 -169 -148 -342 -309 -385 -155 -41 -305 -7
-418 95 -56 51 -91 103 -125 188 -20 51 -21 67 -23 777 -1 399 0 727 2 730 1
3 199 6 438 6 l436 0 1 -35z m1100 30 c3 0 5 -326 4 -723 -2 -803 0 -777 -70
-883 -43 -64 -64 -87 -121 -126 -136 -93 -324 -101 -465 -19 -95 56 -178 163
-204 265 -5 17 -10 37 -12 45 -3 12 -7 1317 -4 1416 l1 30 433 -2 c237 0 435
-2 438 -3z m1109 -697 c0 -435 -4 -722 -10 -755 -26 -137 -118 -255 -247 -316
-162 -78 -365 -41 -492 88 -57 58 -106 149 -120 224 -6 28 -10 355 -11 756 l0
705 440 0 440 0 0 -702z m-2565 -2539 l0 -810 -1625 0 -1625 0 0 812 0 811
1625 -1 1625 -2 0 -810z m1940 -509 l0 -1321 -697 0 c-460 0 -698 3 -699 10
-1 14 -1 2541 0 2592 l1 41 698 0 698 0 -1 -1322z"/>
</g>
</svg>
